<mxfile host="app.diagrams.net" modified="2022-05-13T09:11:59.421Z" agent="5.0 (Windows)" etag="UOjlbhqDa1txao_ySwQQ" version="18.0.3" type="github">
  <diagram id="lqqCyAyABIYfCgZRhh3_" name="Page-1">
    <mxGraphModel dx="593" dy="312" grid="1" gridSize="10" guides="1" tooltips="1" connect="1" arrows="1" fold="1" page="1" pageScale="1" pageWidth="850" pageHeight="1100" math="1" shadow="0">
      <root>
        <mxCell id="0" />
        <mxCell id="1" parent="0" />
        <mxCell id="Z0_xApDfof190iiZYFw1-3" value="" style="group;fontFamily=Lucida Console;fontSize=10;" vertex="1" connectable="0" parent="1">
          <mxGeometry x="309.97" y="140" width="60" height="80" as="geometry" />
        </mxCell>
        <mxCell id="Z0_xApDfof190iiZYFw1-1" value="Round register" style="rounded=0;whiteSpace=wrap;html=1;fontFamily=Lucida Console;fontSize=10;" vertex="1" parent="Z0_xApDfof190iiZYFw1-3">
          <mxGeometry width="60" height="80" as="geometry" />
        </mxCell>
        <mxCell id="Z0_xApDfof190iiZYFw1-2" value="" style="triangle;whiteSpace=wrap;html=1;aspect=fixed;fontFamily=Lucida Console;fontSize=10;" vertex="1" parent="Z0_xApDfof190iiZYFw1-3">
          <mxGeometry y="10" width="10" height="10" as="geometry" />
        </mxCell>
        <mxCell id="Z0_xApDfof190iiZYFw1-15" style="edgeStyle=orthogonalEdgeStyle;rounded=0;orthogonalLoop=1;jettySize=auto;html=1;fontFamily=Lucida Console;fontSize=10;fontColor=default;" edge="1" parent="1" source="Z0_xApDfof190iiZYFw1-5" target="Z0_xApDfof190iiZYFw1-1">
          <mxGeometry relative="1" as="geometry">
            <Array as="points">
              <mxPoint x="280" y="180" />
              <mxPoint x="280" y="180" />
            </Array>
          </mxGeometry>
        </mxCell>
        <mxCell id="Z0_xApDfof190iiZYFw1-5" value="&lt;p style=&quot;line-height: 1;&quot;&gt;&lt;/p&gt;&lt;div style=&quot;line-height: 1.2;&quot;&gt;&lt;font style=&quot;font-size: 10px;&quot;&gt;R&lt;/font&gt;&lt;/div&gt;&lt;div style=&quot;line-height: 1.2;&quot;&gt;&lt;font style=&quot;font-size: 10px; line-height: 0.9;&quot;&gt;&lt;br&gt;&lt;/font&gt;&lt;/div&gt;&lt;div style=&quot;&quot;&gt;&lt;font style=&quot;font-size: 10px;&quot;&gt;L&lt;/font&gt;&lt;/div&gt;&lt;div style=&quot;&quot;&gt;&lt;font style=&quot;font-size: 10px;&quot;&gt;&lt;br&gt;&lt;/font&gt;&lt;/div&gt;&lt;div style=&quot;&quot;&gt;&lt;font style=&quot;font-size: 10px;&quot;&gt;P&lt;/font&gt;&lt;/div&gt;&lt;div style=&quot;&quot;&gt;&lt;font style=&quot;font-size: 10px; line-height: 0.8;&quot;&gt;&lt;br&gt;&lt;/font&gt;&lt;/div&gt;&lt;div style=&quot;&quot;&gt;&lt;font style=&quot;font-size: 10px;&quot;&gt;F&lt;br&gt;&lt;/font&gt;&lt;/div&gt;&lt;p style=&quot;&quot;&gt;&lt;/p&gt;" style="shape=trapezoid;perimeter=trapezoidPerimeter;whiteSpace=wrap;html=1;fixedSize=1;rounded=0;fontFamily=Lucida Console;fontSize=10;fontColor=default;strokeColor=default;fillColor=default;size=10;direction=south;" vertex="1" parent="1">
          <mxGeometry x="249.97" y="120" width="20" height="100" as="geometry" />
        </mxCell>
        <mxCell id="Z0_xApDfof190iiZYFw1-24" style="edgeStyle=orthogonalEdgeStyle;rounded=0;orthogonalLoop=1;jettySize=auto;html=1;fontFamily=Lucida Console;fontSize=10;fontColor=default;endArrow=classic;endFill=1;exitX=0.875;exitY=0.5;exitDx=0;exitDy=0;exitPerimeter=0;" edge="1" parent="1" source="Z0_xApDfof190iiZYFw1-19" target="Z0_xApDfof190iiZYFw1-5">
          <mxGeometry relative="1" as="geometry">
            <Array as="points">
              <mxPoint x="550" y="180" />
              <mxPoint x="550" y="260" />
              <mxPoint x="210" y="260" />
              <mxPoint x="210" y="180" />
            </Array>
          </mxGeometry>
        </mxCell>
        <mxCell id="Z0_xApDfof190iiZYFw1-19" value="Permutation" style="ellipse;shape=cloud;whiteSpace=wrap;html=1;rounded=0;fontFamily=Lucida Console;fontSize=10;fontColor=default;strokeColor=default;fillColor=default;" vertex="1" parent="1">
          <mxGeometry x="409.97" y="140" width="120" height="80" as="geometry" />
        </mxCell>
        <mxCell id="Z0_xApDfof190iiZYFw1-23" style="edgeStyle=orthogonalEdgeStyle;rounded=0;orthogonalLoop=1;jettySize=auto;html=1;fontFamily=Lucida Console;fontSize=10;fontColor=default;endArrow=classic;endFill=1;entryX=0.09;entryY=0.506;entryDx=0;entryDy=0;entryPerimeter=0;" edge="1" parent="1" source="Z0_xApDfof190iiZYFw1-1" target="Z0_xApDfof190iiZYFw1-19">
          <mxGeometry relative="1" as="geometry" />
        </mxCell>
        <mxCell id="Z0_xApDfof190iiZYFw1-33" style="edgeStyle=orthogonalEdgeStyle;rounded=0;orthogonalLoop=1;jettySize=auto;html=1;fontFamily=Lucida Console;fontSize=10;fontColor=default;endArrow=classic;endFill=1;startArrow=none;" edge="1" parent="1" source="Z0_xApDfof190iiZYFw1-51" target="Z0_xApDfof190iiZYFw1-35">
          <mxGeometry relative="1" as="geometry">
            <mxPoint x="460" y="90" as="targetPoint" />
          </mxGeometry>
        </mxCell>
        <mxCell id="Z0_xApDfof190iiZYFw1-30" value="&lt;div style=&quot;font-size: 10px;&quot;&gt;F&lt;/div&gt;&lt;div style=&quot;font-size: 10px;&quot;&gt;~F&lt;br style=&quot;font-size: 10px;&quot;&gt;&lt;/div&gt;" style="shape=trapezoid;perimeter=trapezoidPerimeter;whiteSpace=wrap;html=1;fixedSize=1;rounded=0;fontFamily=Lucida Console;fontSize=10;fontColor=default;strokeColor=default;fillColor=default;size=10;direction=south;" vertex="1" parent="1">
          <mxGeometry x="420" y="70" width="20" height="40" as="geometry" />
        </mxCell>
        <mxCell id="Z0_xApDfof190iiZYFw1-31" value="" style="endArrow=classic;html=1;rounded=0;fontFamily=Lucida Console;fontSize=10;fontColor=default;edgeStyle=orthogonalEdgeStyle;" edge="1" parent="1" target="Z0_xApDfof190iiZYFw1-30">
          <mxGeometry width="50" height="50" relative="1" as="geometry">
            <mxPoint x="380" y="180" as="sourcePoint" />
            <mxPoint x="450" y="90" as="targetPoint" />
            <Array as="points">
              <mxPoint x="380" y="80" />
            </Array>
          </mxGeometry>
        </mxCell>
        <mxCell id="Z0_xApDfof190iiZYFw1-35" value="State out" style="shape=offPageConnector;whiteSpace=wrap;html=1;rounded=0;fontFamily=Lucida Console;fontSize=10;fontColor=default;strokeColor=default;fillColor=default;direction=north;size=0.1;" vertex="1" parent="1">
          <mxGeometry x="480" y="80" width="100" height="20" as="geometry" />
        </mxCell>
        <mxCell id="Z0_xApDfof190iiZYFw1-39" style="edgeStyle=orthogonalEdgeStyle;rounded=0;orthogonalLoop=1;jettySize=auto;html=1;fontFamily=Lucida Console;fontSize=10;fontColor=default;endArrow=classic;endFill=1;exitX=0.5;exitY=0;exitDx=0;exitDy=0;" edge="1" parent="1" source="Z0_xApDfof190iiZYFw1-30" target="Z0_xApDfof190iiZYFw1-30">
          <mxGeometry relative="1" as="geometry">
            <Array as="points">
              <mxPoint x="460" y="90" />
              <mxPoint x="460" y="130" />
              <mxPoint x="400" y="130" />
              <mxPoint x="400" y="100" />
            </Array>
          </mxGeometry>
        </mxCell>
        <mxCell id="Z0_xApDfof190iiZYFw1-40" value="" style="endArrow=none;html=1;rounded=0;fontFamily=Lucida Console;fontSize=10;fontColor=default;exitX=0;exitY=0.5;exitDx=0;exitDy=0;edgeStyle=orthogonalEdgeStyle;" edge="1" parent="1" source="Z0_xApDfof190iiZYFw1-2">
          <mxGeometry width="50" height="50" relative="1" as="geometry">
            <mxPoint x="259.97" y="130" as="sourcePoint" />
            <mxPoint x="290" y="120" as="targetPoint" />
            <Array as="points">
              <mxPoint x="290" y="155" />
              <mxPoint x="290" y="120" />
            </Array>
          </mxGeometry>
        </mxCell>
        <mxCell id="Z0_xApDfof190iiZYFw1-41" value="Clk" style="edgeLabel;html=1;align=center;verticalAlign=middle;resizable=0;points=[];fontSize=10;fontFamily=Lucida Console;fontColor=default;" vertex="1" connectable="0" parent="Z0_xApDfof190iiZYFw1-40">
          <mxGeometry x="0.6708" y="2" relative="1" as="geometry">
            <mxPoint y="-19" as="offset" />
          </mxGeometry>
        </mxCell>
        <mxCell id="Z0_xApDfof190iiZYFw1-43" style="edgeStyle=orthogonalEdgeStyle;rounded=0;orthogonalLoop=1;jettySize=auto;html=1;fontFamily=Lucida Console;fontSize=10;fontColor=default;endArrow=classic;endFill=1;exitX=0.5;exitY=1;exitDx=0;exitDy=0;" edge="1" parent="1" source="Z0_xApDfof190iiZYFw1-42" target="Z0_xApDfof190iiZYFw1-5">
          <mxGeometry relative="1" as="geometry">
            <Array as="points">
              <mxPoint x="190" y="160" />
              <mxPoint x="190" y="160" />
            </Array>
          </mxGeometry>
        </mxCell>
        <mxCell id="Z0_xApDfof190iiZYFw1-42" value="State in" style="shape=offPageConnector;whiteSpace=wrap;html=1;rounded=0;fontFamily=Lucida Console;fontSize=10;fontColor=default;strokeColor=default;fillColor=default;direction=north;size=0.1;" vertex="1" parent="1">
          <mxGeometry x="100.00000000000003" y="150" width="100" height="20" as="geometry" />
        </mxCell>
        <mxCell id="Z0_xApDfof190iiZYFw1-44" style="edgeStyle=orthogonalEdgeStyle;rounded=0;orthogonalLoop=1;jettySize=auto;html=1;fontFamily=Lucida Console;fontSize=10;fontColor=default;endArrow=classic;endFill=1;" edge="1" parent="1" source="Z0_xApDfof190iiZYFw1-1" target="Z0_xApDfof190iiZYFw1-5">
          <mxGeometry relative="1" as="geometry">
            <Array as="points">
              <mxPoint x="380" y="180" />
              <mxPoint x="380" y="240" />
              <mxPoint x="230" y="240" />
              <mxPoint x="230" y="200" />
            </Array>
          </mxGeometry>
        </mxCell>
        <mxCell id="Z0_xApDfof190iiZYFw1-46" value="" style="shape=image;html=1;verticalAlign=top;verticalLabelPosition=bottom;labelBackgroundColor=#ffffff;imageAspect=0;aspect=fixed;image=https://cdn4.iconfinder.com/data/icons/essential-app-2/16/record-round-circle-dot-128.png;rounded=0;fontFamily=Lucida Console;fontSize=10;fontColor=default;strokeColor=default;fillColor=default;" vertex="1" parent="1">
          <mxGeometry x="375" y="175" width="10" height="10" as="geometry" />
        </mxCell>
        <mxCell id="Z0_xApDfof190iiZYFw1-51" value="" style="shape=image;html=1;verticalAlign=top;verticalLabelPosition=bottom;labelBackgroundColor=#ffffff;imageAspect=0;aspect=fixed;image=https://cdn4.iconfinder.com/data/icons/essential-app-2/16/record-round-circle-dot-128.png;rounded=0;fontFamily=Lucida Console;fontSize=10;fontColor=default;strokeColor=default;fillColor=default;" vertex="1" parent="1">
          <mxGeometry x="455" y="85" width="10" height="10" as="geometry" />
        </mxCell>
        <mxCell id="Z0_xApDfof190iiZYFw1-53" value="" style="endArrow=none;html=1;rounded=0;fontFamily=Lucida Console;fontSize=10;fontColor=default;edgeStyle=orthogonalEdgeStyle;" edge="1" parent="1" target="Z0_xApDfof190iiZYFw1-5">
          <mxGeometry width="50" height="50" relative="1" as="geometry">
            <mxPoint x="200" y="140" as="sourcePoint" />
            <mxPoint x="175" y="60" as="targetPoint" />
            <Array as="points">
              <mxPoint x="200" y="140" />
            </Array>
          </mxGeometry>
        </mxCell>
        <mxCell id="Z0_xApDfof190iiZYFw1-54" value="0" style="edgeLabel;html=1;align=center;verticalAlign=middle;resizable=0;points=[];fontSize=10;fontFamily=Lucida Console;fontColor=default;" vertex="1" connectable="0" parent="Z0_xApDfof190iiZYFw1-53">
          <mxGeometry x="-0.2061" y="-1" relative="1" as="geometry">
            <mxPoint x="-20" y="-1" as="offset" />
          </mxGeometry>
        </mxCell>
      </root>
    </mxGraphModel>
  </diagram>
</mxfile>
